# xmcd CD database file
#
# Track frame offsets:
#	150
#	19252
#	39951
#	59096
#	80014
#	97366
#	111051
#	132902
#	154004
#	165649
#	186469
#	209552
#	235895
#	251956
#	269122
#	288855
#	301237
#	327811
#
# Disc length: 4657 seconds
#
# Revision: 0
# Processed by: cddbd v1.5.1PL0 Copyright (c) Steve Scherf et al.
# Submitted via: CDex 1.51
#
DISCID=12122f12
DTITLE=Celia Cruz - La Negra tiene Tumbao
DYEAR=2003
DGENRE=Salsa
TTITLE0=1
TTITLE1=2
TTITLE2=3
TTITLE3=4
TTITLE4=5
TTITLE5=6
TTITLE6=7
TTITLE7=8
TTITLE8=9
TTITLE9=10
TTITLE10=11
TTITLE11=12
TTITLE12=13
TTITLE13=14
TTITLE14=1
TTITLE15=5
TTITLE16=16
TTITLE17=17
EXTD=YEAR: 2003
EXTT0=
EXTT1=
EXTT2=
EXTT3=
EXTT4=
EXTT5=
EXTT6=
EXTT7=
EXTT8=
EXTT9=
EXTT10=
EXTT11=
EXTT12=
EXTT13=
EXTT14=
EXTT15=
EXTT16=
EXTT17=
PLAYORDER=
